<mxfile host="app.diagrams.net" agent="Mozilla/5.0 (Macintosh; Intel Mac OS X 10_15_7) AppleWebKit/537.36 (KHTML, like Gecko) Chrome/129.0.0.0 Safari/537.36" version="24.7.17">
  <diagram name="Page-1" id="b520641d-4fe3-3701-9064-5fc419738815">
    <mxGraphModel dx="2691" dy="629" grid="1" gridSize="10" guides="1" tooltips="1" connect="1" arrows="1" fold="1" page="1" pageScale="1" pageWidth="1100" pageHeight="850" background="none" math="0" shadow="0">
      <root>
        <mxCell id="0" />
        <mxCell id="1" parent="0" />
        <mxCell id="21ea969265ad0168-22" value="Crop" style="swimlane;html=1;fontStyle=0;childLayout=stackLayout;horizontal=1;startSize=26;fillColor=#e0e0e0;horizontalStack=0;resizeParent=1;resizeLast=0;collapsible=1;marginBottom=0;swimlaneFillColor=#ffffff;align=center;rounded=1;shadow=0;comic=0;labelBackgroundColor=none;strokeWidth=1;fontFamily=Verdana;fontSize=12" parent="1" vertex="1">
          <mxGeometry x="300" y="390" width="160" height="90" as="geometry" />
        </mxCell>
        <mxCell id="21ea969265ad0168-23" value="id          : Integer (PK)" style="text;html=1;strokeColor=none;fillColor=none;spacingLeft=4;spacingRight=4;whiteSpace=wrap;overflow=hidden;rotatable=0;points=[[0,0.5],[1,0.5]];portConstraint=eastwest;" parent="21ea969265ad0168-22" vertex="1">
          <mxGeometry y="26" width="160" height="26" as="geometry" />
        </mxCell>
        <mxCell id="21ea969265ad0168-24" value="name        : CharField(255)&amp;nbsp;" style="text;html=1;strokeColor=none;fillColor=none;spacingLeft=4;spacingRight=4;whiteSpace=wrap;overflow=hidden;rotatable=0;points=[[0,0.5],[1,0.5]];portConstraint=eastwest;" parent="21ea969265ad0168-22" vertex="1">
          <mxGeometry y="52" width="160" height="26" as="geometry" />
        </mxCell>
        <mxCell id="21ea969265ad0168-6" value="HarvestCrop" style="swimlane;html=1;fontStyle=0;childLayout=stackLayout;horizontal=1;startSize=26;fillColor=#e0e0e0;horizontalStack=0;resizeParent=1;resizeLast=0;collapsible=1;marginBottom=0;swimlaneFillColor=#ffffff;align=center;rounded=1;shadow=0;comic=0;labelBackgroundColor=none;strokeWidth=1;fontFamily=Verdana;fontSize=12" parent="1" vertex="1">
          <mxGeometry x="580" width="210" height="640" as="geometry">
            <mxRectangle x="560" y="210" width="110" height="30" as="alternateBounds" />
          </mxGeometry>
        </mxCell>
        <mxCell id="D7hbp-H_iWI3xw_V1v7C-16" value="id : Integer (PK)" style="text;strokeColor=none;fillColor=none;spacingLeft=4;spacingRight=4;overflow=hidden;rotatable=0;points=[[0,0.5],[1,0.5]];portConstraint=eastwest;fontSize=12;whiteSpace=wrap;html=1;" vertex="1" parent="21ea969265ad0168-6">
          <mxGeometry y="26" width="210" height="30" as="geometry" />
        </mxCell>
        <mxCell id="21ea969265ad0168-8" value="crop      : Integer (FK)&amp;nbsp;" style="text;html=1;strokeColor=none;fillColor=none;spacingLeft=4;spacingRight=4;whiteSpace=wrap;overflow=hidden;rotatable=0;points=[[0,0.5],[1,0.5]];portConstraint=eastwest;" parent="21ea969265ad0168-6" vertex="1">
          <mxGeometry y="56" width="210" height="26" as="geometry" />
        </mxCell>
        <mxCell id="QYSASBaBdvz4rrHFtSfU-6" value="harvest        : Integer (FK)&amp;nbsp;" style="text;html=1;strokeColor=none;fillColor=none;spacingLeft=4;spacingRight=4;whiteSpace=wrap;overflow=hidden;rotatable=0;points=[[0,0.5],[1,0.5]];portConstraint=eastwest;" parent="21ea969265ad0168-6" vertex="1">
          <mxGeometry y="82" width="210" height="26" as="geometry" />
        </mxCell>
        <mxCell id="QYSASBaBdvz4rrHFtSfU-7" value="team&amp;nbsp;&lt;span style=&quot;background-color: initial;&quot;&gt;: Integer (FK)&lt;/span&gt;" style="text;html=1;strokeColor=none;fillColor=none;spacingLeft=4;spacingRight=4;whiteSpace=wrap;overflow=hidden;rotatable=0;points=[[0,0.5],[1,0.5]];portConstraint=eastwest;" parent="21ea969265ad0168-6" vertex="1">
          <mxGeometry y="108" width="210" height="26" as="geometry" />
        </mxCell>
        <mxCell id="21ea969265ad0168-9" value="is_main_crop : Boolean" style="text;html=1;strokeColor=none;fillColor=none;spacingLeft=4;spacingRight=4;whiteSpace=wrap;overflow=hidden;rotatable=0;points=[[0,0.5],[1,0.5]];portConstraint=eastwest;" parent="21ea969265ad0168-6" vertex="1">
          <mxGeometry y="134" width="210" height="26" as="geometry" />
        </mxCell>
        <mxCell id="D7hbp-H_iWI3xw_V1v7C-18" value="&lt;div&gt;area : Integer&lt;/div&gt;&lt;div&gt;&lt;br&gt;&lt;/div&gt;" style="text;strokeColor=none;fillColor=none;spacingLeft=4;spacingRight=4;overflow=hidden;rotatable=0;points=[[0,0.5],[1,0.5]];portConstraint=eastwest;fontSize=12;whiteSpace=wrap;html=1;" vertex="1" parent="21ea969265ad0168-6">
          <mxGeometry y="160" width="210" height="30" as="geometry" />
        </mxCell>
        <mxCell id="D7hbp-H_iWI3xw_V1v7C-19" value="yield_amount : Integer" style="text;strokeColor=none;fillColor=none;spacingLeft=4;spacingRight=4;overflow=hidden;rotatable=0;points=[[0,0.5],[1,0.5]];portConstraint=eastwest;fontSize=12;whiteSpace=wrap;html=1;" vertex="1" parent="21ea969265ad0168-6">
          <mxGeometry y="190" width="210" height="30" as="geometry" />
        </mxCell>
        <mxCell id="D7hbp-H_iWI3xw_V1v7C-23" value="fertilizer_used : Integer" style="text;strokeColor=none;fillColor=none;spacingLeft=4;spacingRight=4;overflow=hidden;rotatable=0;points=[[0,0.5],[1,0.5]];portConstraint=eastwest;fontSize=12;whiteSpace=wrap;html=1;" vertex="1" parent="21ea969265ad0168-6">
          <mxGeometry y="220" width="210" height="30" as="geometry" />
        </mxCell>
        <mxCell id="D7hbp-H_iWI3xw_V1v7C-21" value="irrigation_times : Integer" style="text;strokeColor=none;fillColor=none;spacingLeft=4;spacingRight=4;overflow=hidden;rotatable=0;points=[[0,0.5],[1,0.5]];portConstraint=eastwest;fontSize=12;whiteSpace=wrap;html=1;" vertex="1" parent="21ea969265ad0168-6">
          <mxGeometry y="250" width="210" height="30" as="geometry" />
        </mxCell>
        <mxCell id="D7hbp-H_iWI3xw_V1v7C-22" value="pesticide_used : Integer" style="text;strokeColor=none;fillColor=none;spacingLeft=4;spacingRight=4;overflow=hidden;rotatable=0;points=[[0,0.5],[1,0.5]];portConstraint=eastwest;fontSize=12;whiteSpace=wrap;html=1;" vertex="1" parent="21ea969265ad0168-6">
          <mxGeometry y="280" width="210" height="30" as="geometry" />
        </mxCell>
        <mxCell id="D7hbp-H_iWI3xw_V1v7C-20" value="disease_events : Integer" style="text;strokeColor=none;fillColor=none;spacingLeft=4;spacingRight=4;overflow=hidden;rotatable=0;points=[[0,0.5],[1,0.5]];portConstraint=eastwest;fontSize=12;whiteSpace=wrap;html=1;" vertex="1" parent="21ea969265ad0168-6">
          <mxGeometry y="310" width="210" height="30" as="geometry" />
        </mxCell>
        <mxCell id="D7hbp-H_iWI3xw_V1v7C-17" value="harvest_times : Integer" style="text;strokeColor=none;fillColor=none;spacingLeft=4;spacingRight=4;overflow=hidden;rotatable=0;points=[[0,0.5],[1,0.5]];portConstraint=eastwest;fontSize=12;whiteSpace=wrap;html=1;" vertex="1" parent="21ea969265ad0168-6">
          <mxGeometry y="340" width="210" height="30" as="geometry" />
        </mxCell>
        <mxCell id="D7hbp-H_iWI3xw_V1v7C-26" value="replant_times : Integer" style="text;strokeColor=none;fillColor=none;spacingLeft=4;spacingRight=4;overflow=hidden;rotatable=0;points=[[0,0.5],[1,0.5]];portConstraint=eastwest;fontSize=12;whiteSpace=wrap;html=1;" vertex="1" parent="21ea969265ad0168-6">
          <mxGeometry y="370" width="210" height="30" as="geometry" />
        </mxCell>
        <mxCell id="D7hbp-H_iWI3xw_V1v7C-25" value="weed_events : Integer" style="text;strokeColor=none;fillColor=none;spacingLeft=4;spacingRight=4;overflow=hidden;rotatable=0;points=[[0,0.5],[1,0.5]];portConstraint=eastwest;fontSize=12;whiteSpace=wrap;html=1;" vertex="1" parent="21ea969265ad0168-6">
          <mxGeometry y="400" width="210" height="30" as="geometry" />
        </mxCell>
        <mxCell id="D7hbp-H_iWI3xw_V1v7C-24" value="soil_events : Integer" style="text;strokeColor=none;fillColor=none;spacingLeft=4;spacingRight=4;overflow=hidden;rotatable=0;points=[[0,0.5],[1,0.5]];portConstraint=eastwest;fontSize=12;whiteSpace=wrap;html=1;" vertex="1" parent="21ea969265ad0168-6">
          <mxGeometry y="430" width="210" height="30" as="geometry" />
        </mxCell>
        <mxCell id="D7hbp-H_iWI3xw_V1v7C-30" value="organic_input_times : Integer" style="text;strokeColor=none;fillColor=none;spacingLeft=4;spacingRight=4;overflow=hidden;rotatable=0;points=[[0,0.5],[1,0.5]];portConstraint=eastwest;fontSize=12;whiteSpace=wrap;html=1;" vertex="1" parent="21ea969265ad0168-6">
          <mxGeometry y="460" width="210" height="30" as="geometry" />
        </mxCell>
        <mxCell id="D7hbp-H_iWI3xw_V1v7C-31" value="organic_input_total : Integer" style="text;strokeColor=none;fillColor=none;spacingLeft=4;spacingRight=4;overflow=hidden;rotatable=0;points=[[0,0.5],[1,0.5]];portConstraint=eastwest;fontSize=12;whiteSpace=wrap;html=1;" vertex="1" parent="21ea969265ad0168-6">
          <mxGeometry y="490" width="210" height="30" as="geometry" />
        </mxCell>
        <mxCell id="D7hbp-H_iWI3xw_V1v7C-29" value="machinery_used : Integer" style="text;strokeColor=none;fillColor=none;spacingLeft=4;spacingRight=4;overflow=hidden;rotatable=0;points=[[0,0.5],[1,0.5]];portConstraint=eastwest;fontSize=12;whiteSpace=wrap;html=1;" vertex="1" parent="21ea969265ad0168-6">
          <mxGeometry y="520" width="210" height="30" as="geometry" />
        </mxCell>
        <mxCell id="D7hbp-H_iWI3xw_V1v7C-33" value="machinery_total : Integer" style="text;strokeColor=none;fillColor=none;spacingLeft=4;spacingRight=4;overflow=hidden;rotatable=0;points=[[0,0.5],[1,0.5]];portConstraint=eastwest;fontSize=12;whiteSpace=wrap;html=1;" vertex="1" parent="21ea969265ad0168-6">
          <mxGeometry y="550" width="210" height="30" as="geometry" />
        </mxCell>
        <mxCell id="D7hbp-H_iWI3xw_V1v7C-32" value="test_sample_count : Integer" style="text;strokeColor=none;fillColor=none;spacingLeft=4;spacingRight=4;overflow=hidden;rotatable=0;points=[[0,0.5],[1,0.5]];portConstraint=eastwest;fontSize=12;whiteSpace=wrap;html=1;" vertex="1" parent="21ea969265ad0168-6">
          <mxGeometry y="580" width="210" height="30" as="geometry" />
        </mxCell>
        <mxCell id="D7hbp-H_iWI3xw_V1v7C-28" value="test_sample_total : Integer" style="text;strokeColor=none;fillColor=none;spacingLeft=4;spacingRight=4;overflow=hidden;rotatable=0;points=[[0,0.5],[1,0.5]];portConstraint=eastwest;fontSize=12;whiteSpace=wrap;html=1;" vertex="1" parent="21ea969265ad0168-6">
          <mxGeometry y="610" width="210" height="30" as="geometry" />
        </mxCell>
        <mxCell id="QYSASBaBdvz4rrHFtSfU-1" value="Farm" style="swimlane;html=1;fontStyle=0;childLayout=stackLayout;horizontal=1;startSize=26;fillColor=#e0e0e0;horizontalStack=0;resizeParent=1;resizeLast=0;collapsible=1;marginBottom=0;swimlaneFillColor=#ffffff;align=center;rounded=1;shadow=0;comic=0;labelBackgroundColor=none;strokeWidth=1;fontFamily=Verdana;fontSize=12" parent="1" vertex="1">
          <mxGeometry x="-10" y="80" width="160" height="84" as="geometry" />
        </mxCell>
        <mxCell id="QYSASBaBdvz4rrHFtSfU-2" value="id          : Integer (PK)" style="text;html=1;strokeColor=none;fillColor=none;spacingLeft=4;spacingRight=4;whiteSpace=wrap;overflow=hidden;rotatable=0;points=[[0,0.5],[1,0.5]];portConstraint=eastwest;" parent="QYSASBaBdvz4rrHFtSfU-1" vertex="1">
          <mxGeometry y="26" width="160" height="26" as="geometry" />
        </mxCell>
        <mxCell id="QYSASBaBdvz4rrHFtSfU-3" value="name        : CharField(255)" style="text;html=1;strokeColor=none;fillColor=none;spacingLeft=4;spacingRight=4;whiteSpace=wrap;overflow=hidden;rotatable=0;points=[[0,0.5],[1,0.5]];portConstraint=eastwest;" parent="QYSASBaBdvz4rrHFtSfU-1" vertex="1">
          <mxGeometry y="52" width="160" height="26" as="geometry" />
        </mxCell>
        <mxCell id="QYSASBaBdvz4rrHFtSfU-9" value="YieldRecord" style="swimlane;html=1;fontStyle=0;childLayout=stackLayout;horizontal=1;startSize=26;fillColor=#e0e0e0;horizontalStack=0;resizeParent=1;resizeLast=0;collapsible=1;marginBottom=0;swimlaneFillColor=#ffffff;align=center;rounded=1;shadow=0;comic=0;labelBackgroundColor=none;strokeWidth=1;fontFamily=Verdana;fontSize=12" parent="1" vertex="1">
          <mxGeometry x="860" y="180" width="160" height="156" as="geometry" />
        </mxCell>
        <mxCell id="QYSASBaBdvz4rrHFtSfU-10" value="id          : Integer (PK)" style="text;html=1;strokeColor=none;fillColor=none;spacingLeft=4;spacingRight=4;whiteSpace=wrap;overflow=hidden;rotatable=0;points=[[0,0.5],[1,0.5]];portConstraint=eastwest;" parent="QYSASBaBdvz4rrHFtSfU-9" vertex="1">
          <mxGeometry y="26" width="160" height="26" as="geometry" />
        </mxCell>
        <mxCell id="QYSASBaBdvz4rrHFtSfU-11" value="game_player : Integer (FK)&amp;nbsp;" style="text;html=1;strokeColor=none;fillColor=none;spacingLeft=4;spacingRight=4;whiteSpace=wrap;overflow=hidden;rotatable=0;points=[[0,0.5],[1,0.5]];portConstraint=eastwest;" parent="QYSASBaBdvz4rrHFtSfU-9" vertex="1">
          <mxGeometry y="52" width="160" height="26" as="geometry" />
        </mxCell>
        <mxCell id="QYSASBaBdvz4rrHFtSfU-12" value="is_harvested     : Boolean&amp;nbsp;" style="text;html=1;strokeColor=none;fillColor=none;spacingLeft=4;spacingRight=4;whiteSpace=wrap;overflow=hidden;rotatable=0;points=[[0,0.5],[1,0.5]];portConstraint=eastwest;" parent="QYSASBaBdvz4rrHFtSfU-9" vertex="1">
          <mxGeometry y="78" width="160" height="26" as="geometry" />
        </mxCell>
        <mxCell id="QYSASBaBdvz4rrHFtSfU-13" value="field_location_x  : Float&amp;nbsp;" style="text;html=1;strokeColor=none;fillColor=none;spacingLeft=4;spacingRight=4;whiteSpace=wrap;overflow=hidden;rotatable=0;points=[[0,0.5],[1,0.5]];portConstraint=eastwest;" parent="QYSASBaBdvz4rrHFtSfU-9" vertex="1">
          <mxGeometry y="104" width="160" height="26" as="geometry" />
        </mxCell>
        <mxCell id="QYSASBaBdvz4rrHFtSfU-14" value="field_location_y : Float&amp;nbsp;" style="text;html=1;strokeColor=none;fillColor=none;spacingLeft=4;spacingRight=4;whiteSpace=wrap;overflow=hidden;rotatable=0;points=[[0,0.5],[1,0.5]];portConstraint=eastwest;" parent="QYSASBaBdvz4rrHFtSfU-9" vertex="1">
          <mxGeometry y="130" width="160" height="26" as="geometry" />
        </mxCell>
        <mxCell id="QYSASBaBdvz4rrHFtSfU-15" style="edgeStyle=orthogonalEdgeStyle;rounded=0;orthogonalLoop=1;jettySize=auto;html=1;entryX=0;entryY=0.5;entryDx=0;entryDy=0;" parent="1" source="21ea969265ad0168-23" target="21ea969265ad0168-8" edge="1">
          <mxGeometry relative="1" as="geometry" />
        </mxCell>
        <mxCell id="QYSASBaBdvz4rrHFtSfU-16" style="edgeStyle=orthogonalEdgeStyle;rounded=0;orthogonalLoop=1;jettySize=auto;html=1;entryX=0;entryY=0.5;entryDx=0;entryDy=0;" parent="1" source="21ea969265ad0168-11" target="QYSASBaBdvz4rrHFtSfU-6" edge="1">
          <mxGeometry relative="1" as="geometry" />
        </mxCell>
        <mxCell id="QYSASBaBdvz4rrHFtSfU-17" style="edgeStyle=orthogonalEdgeStyle;rounded=0;orthogonalLoop=1;jettySize=auto;html=1;entryX=0;entryY=0.5;entryDx=0;entryDy=0;" parent="1" source="QYSASBaBdvz4rrHFtSfU-2" target="21ea969265ad0168-52" edge="1">
          <mxGeometry relative="1" as="geometry" />
        </mxCell>
        <mxCell id="QYSASBaBdvz4rrHFtSfU-18" style="edgeStyle=orthogonalEdgeStyle;rounded=0;orthogonalLoop=1;jettySize=auto;html=1;" parent="1" source="QYSASBaBdvz4rrHFtSfU-2" target="21ea969265ad0168-13" edge="1">
          <mxGeometry relative="1" as="geometry" />
        </mxCell>
        <mxCell id="D7hbp-H_iWI3xw_V1v7C-1" style="edgeStyle=orthogonalEdgeStyle;rounded=0;orthogonalLoop=1;jettySize=auto;html=1;entryX=0;entryY=0.5;entryDx=0;entryDy=0;" edge="1" parent="1" source="QYSASBaBdvz4rrHFtSfU-2" target="QYSASBaBdvz4rrHFtSfU-7">
          <mxGeometry relative="1" as="geometry" />
        </mxCell>
        <mxCell id="D7hbp-H_iWI3xw_V1v7C-34" style="edgeStyle=orthogonalEdgeStyle;rounded=0;orthogonalLoop=1;jettySize=auto;html=1;" edge="1" parent="1" source="D7hbp-H_iWI3xw_V1v7C-16" target="QYSASBaBdvz4rrHFtSfU-11">
          <mxGeometry relative="1" as="geometry" />
        </mxCell>
        <mxCell id="21ea969265ad0168-10" value="Harvest" style="swimlane;html=1;fontStyle=0;childLayout=stackLayout;horizontal=1;startSize=26;fillColor=#e0e0e0;horizontalStack=0;resizeParent=1;resizeLast=0;collapsible=1;marginBottom=0;swimlaneFillColor=#ffffff;align=center;rounded=1;shadow=0;comic=0;labelBackgroundColor=none;strokeWidth=1;fontFamily=Verdana;fontSize=12" parent="1" vertex="1">
          <mxGeometry x="250" y="180" width="160" height="140" as="geometry" />
        </mxCell>
        <mxCell id="21ea969265ad0168-11" value="id          : Integer (PK)&amp;nbsp;" style="text;html=1;strokeColor=none;fillColor=none;spacingLeft=4;spacingRight=4;whiteSpace=wrap;overflow=hidden;rotatable=0;points=[[0,0.5],[1,0.5]];portConstraint=eastwest;" parent="21ea969265ad0168-10" vertex="1">
          <mxGeometry y="26" width="160" height="26" as="geometry" />
        </mxCell>
        <mxCell id="21ea969265ad0168-12" value="date        : Date&amp;nbsp;" style="text;html=1;strokeColor=none;fillColor=none;spacingLeft=4;spacingRight=4;whiteSpace=wrap;overflow=hidden;rotatable=0;points=[[0,0.5],[1,0.5]];portConstraint=eastwest;" parent="21ea969265ad0168-10" vertex="1">
          <mxGeometry y="52" width="160" height="26" as="geometry" />
        </mxCell>
        <mxCell id="21ea969265ad0168-52" value="main_farm   : Integer (FK)&amp;nbsp;" style="text;html=1;strokeColor=none;fillColor=none;spacingLeft=4;spacingRight=4;whiteSpace=wrap;overflow=hidden;rotatable=0;points=[[0,0.5],[1,0.5]];portConstraint=eastwest;" parent="21ea969265ad0168-10" vertex="1">
          <mxGeometry y="78" width="160" height="26" as="geometry" />
        </mxCell>
        <mxCell id="21ea969265ad0168-13" value="other_farm : Integer (FK)&amp;nbsp;" style="text;html=1;strokeColor=none;fillColor=none;spacingLeft=4;spacingRight=4;whiteSpace=wrap;overflow=hidden;rotatable=0;points=[[0,0.5],[1,0.5]];portConstraint=eastwest;" parent="21ea969265ad0168-10" vertex="1">
          <mxGeometry y="104" width="160" height="26" as="geometry" />
        </mxCell>
      </root>
    </mxGraphModel>
  </diagram>
</mxfile>
